<svg width="40" height="40" viewBox="0 0 40 40" fill="none" xmlns="http://www.w3.org/2000/svg">
<path d="M20 40C31.0457 40 40 31.0457 40 20C40 8.95431 31.0457 0 20 0C8.95431 0 0 8.95431 0 20C0 31.0457 8.95431 40 20 40Z" fill="white" fill-opacity="0.2" style="fill:white;fill:white;fill-opacity:0.2;"/>
<path d="M39.5 20C39.5 30.7696 30.7696 39.5 20 39.5C9.23045 39.5 0.5 30.7696 0.5 20C0.5 9.23045 9.23045 0.5 20 0.5C30.7696 0.5 39.5 9.23045 39.5 20Z" stroke="white" stroke-opacity="0.2" style="stroke:white;stroke:white;stroke-opacity:0.2;" stroke-miterlimit="10"/>
<path fill-rule="evenodd" clip-rule="evenodd" d="M36.2464 31.6667C32.6158 36.7136 26.6917 40 19.9999 40C13.3082 40 7.38401 36.7136 3.75342 31.6667C7.38401 26.6198 13.3082 23.3334 20 23.3334C26.6917 23.3334 32.6158 26.6198 36.2464 31.6667Z" fill="white" style="fill:white;fill:white;fill-opacity:1;"/>
<path d="M20.0001 21.6667C24.6025 21.6667 28.3334 17.9357 28.3334 13.3333C28.3334 8.73096 24.6025 5 20.0001 5C15.3977 5 11.6667 8.73096 11.6667 13.3333C11.6667 17.9357 15.3977 21.6667 20.0001 21.6667Z" fill="#FF3392" style="fill:#FF3392;fill:color(display-p3 1.0000 0.2000 0.5733);fill-opacity:1;"/>
</svg>
